<svg width="16" height="25" viewBox="0 0 16 25" fill="none" xmlns="http://www.w3.org/2000/svg">
    <path d="M14.9675 10.9227L4.69819 0.653345C4.49106 0.446209 4.24515 0.2819 3.97451 0.169798C3.70388 0.0576972 3.41381 2.18253e-09 3.12088 0C2.82794 -2.18254e-09 2.53788 0.0576972 2.26724 0.169798C1.9966 0.2819 1.7507 0.446209 1.54356 0.653345C1.33642 0.860482 1.17212 1.10639 1.06001 1.37702C0.947912 1.64766 0.890213 1.93773 0.890213 2.23066C0.890213 2.5236 0.947912 2.81366 1.06001 3.0843C1.17212 3.35494 1.33642 3.60084 1.54356 3.80798L10.2244 12.5112L1.54356 21.192C1.33642 21.3992 1.17212 21.6451 1.06001 21.9157C0.947912 22.1863 0.890213 22.4764 0.890213 22.7693C0.890213 23.0623 0.947912 23.3523 1.06001 23.623C1.17212 23.8936 1.33642 24.1395 1.54356 24.3467C1.7507 24.5538 1.9966 24.7181 2.26724 24.8302C2.53788 24.9423 2.82794 25 3.12088 25C3.41381 25 3.70388 24.9423 3.97451 24.8302C4.24515 24.7181 4.49106 24.5538 4.69819 24.3467L14.9675 14.0773C15.1749 13.8703 15.3395 13.6245 15.4518 13.3538C15.564 13.0832 15.6218 12.793 15.6218 12.5C15.6218 12.207 15.564 11.9168 15.4518 11.6462C15.3395 11.3755 15.1749 11.1297 14.9675 10.9227Z" fill="#60A0FF"/>
</svg>
